HIERARCHY
ROOT hip
{
	OFFSET 0.000000 0.000000 0.000000 
	CHANNELS 6 Xposition Yposition Zposition Xrotation Zrotation Yrotation
	JOINT abdomen
	{
		OFFSET 0.000000 3.402643 0.000000 
		CHANNELS 3 Xrotation Zrotation Yrotation
		JOINT chest
		{
			OFFSET 0.000000 8.438565 -0.680529 
			CHANNELS 3 Xrotation Zrotation Yrotation
			JOINT neck
			{
				OFFSET 0.000000 10.207942 -0.272212 
				CHANNELS 3 Xrotation Zrotation Yrotation
				JOINT head
				{
					OFFSET 0.000000 3.130431 0.000000 
					CHANNELS 3 Xrotation Zrotation Yrotation
					End Site
					{
						OFFSET 0.000000 3.130435 0.000000 
					}
				}
			}
			JOINT lCollar
			{
				OFFSET 3.470700 6.669187 -0.816635 
				CHANNELS 3 Yrotation Zrotation Xrotation
				JOINT lShldr
				{
					OFFSET 3.198488 0.000000 0.000000 
					CHANNELS 3 Zrotation Yrotation Xrotation
					JOINT lForeArm
					{
						OFFSET 10.139888 0.000000 0.000000 
						CHANNELS 3 Yrotation Zrotation Xrotation
						JOINT lHand
						{
							OFFSET 8.370511 0.000000 0.000000 
							CHANNELS 3 Zrotation Yrotation Xrotation
							End Site
							{
								OFFSET 4.083176 0.000000 0.000000 
							}
						}
					}
				}
			}
			JOINT rCollar
			{
				OFFSET -3.470700 6.669187 -0.816635 
				CHANNELS 3 Yrotation Zrotation Xrotation
				JOINT rShldr
				{
					OFFSET -3.198488 0.000000 0.000000 
					CHANNELS 3 Zrotation Yrotation Xrotation
					JOINT rForeArm
					{
						OFFSET -10.139888 0.000000 0.000000 
						CHANNELS 3 Yrotation Zrotation Xrotation
						JOINT rHand
						{
							OFFSET -8.370511 0.000000 0.000000 
							CHANNELS 3 Zrotation Yrotation Xrotation
							End Site
							{
								OFFSET -4.083176 0.000000 0.000000 
							}
						}
					}
				}
			}
		}
	}
	JOINT lThigh
	{
		OFFSET 5.308129 -1.633274 1.361059 
		CHANNELS 3 Xrotation Zrotation Yrotation
		JOINT lShin
		{
			OFFSET -2.041588 -20.007561 0.000000 
			CHANNELS 3 Xrotation Zrotation Yrotation
			JOINT lFoot
			{
				OFFSET 0.000000 -19.190928 -1.224953 
				CHANNELS 3 Xrotation Yrotation Zrotation
				End Site
				{
					OFFSET 0.000000 -2.449906 4.627600 
				}
			}
		}
	}
	JOINT rThigh
	{
		OFFSET -5.308129 -1.633274 1.361059 
		CHANNELS 3 Xrotation Zrotation Yrotation
		JOINT rShin
		{
			OFFSET 2.041588 -20.007561 0.000000 
			CHANNELS 3 Xrotation Zrotation Yrotation
			JOINT rFoot
			{
				OFFSET 0.000000 -19.190928 -1.224953 
				CHANNELS 3 Xrotation Yrotation Zrotation
				End Site
				{
					OFFSET 0.000000 -2.449906 4.627600 
				}
			}
		}
	}
}
MOTION
Frames: 16
Frame Time: 0.033333
1.611652 42.469387 0.432784 -6.290762 5.678717 20.732630 0.000000 0.000000 0.000000 23.322296 -0.726391 -14.981222 -13.800999 -2.197677 -3.215782 6.557728 3.913528 -4.309282 -3.519355 9.157742 6.311733 -53.049744 -32.185062 -17.870148 -101.915321 -6.405843 -16.390284 17.015522 3.943129 -9.227510 3.090466 -14.082293 8.028685 55.689602 28.221943 -42.456284 93.047424 16.720881 37.904537 -11.833847 -9.040490 -8.931130 -11.621017 13.866931 18.584629 64.197388 -2.821398 -25.797510 -30.604141 -6.432084 19.828505 -30.210604 -30.158983 -14.902102 57.135139 -8.104218 12.744791 -5.796755 0.259400 -3.102268 
1.733585 42.434799 0.194034 -5.439740 5.969285 22.176775 0.000000 0.000000 0.000000 22.951769 -1.825591 -13.888390 -13.722164 -1.313409 -4.655556 6.694356 4.089534 -5.155387 -3.519355 9.157742 6.311733 -53.947090 -37.019939 -14.003011 -100.261040 -5.400334 -15.442019 16.264215 3.876796 -9.174013 3.090466 -14.082293 8.028685 56.696060 22.189600 -44.755253 92.907677 17.477478 37.425079 -12.304518 -8.935496 -8.943940 -13.189611 12.669003 17.522362 64.494545 -2.653811 -25.262751 -30.205183 -6.281850 19.572067 -31.120716 -31.441315 -15.019036 57.660564 -8.171855 12.762030 -4.340397 0.194578 -2.736359 
1.749008 42.582699 0.124388 -5.555711 5.783438 23.081882 0.000000 0.000000 0.000000 23.114670 -1.571861 -12.614192 -13.892254 -0.894766 -5.728995 6.783112 3.796917 -5.833214 -3.519355 9.157742 6.311733 -56.367821 -39.308071 -10.410937 -98.543907 -4.183035 -13.632313 15.251701 3.313415 -9.143506 3.090466 -14.082293 8.028685 57.752945 17.777006 -46.090488 92.907982 18.233013 35.448952 -12.881039 -8.854145 -8.958830 -13.316699 12.864486 17.389799 64.194267 -2.651639 -25.497522 -29.465368 -6.017571 19.217812 -30.368595 -31.538378 -15.583018 57.191277 -7.956845 12.760290 -3.488026 0.157775 -2.502236 
1.807962 42.773045 -0.000003 -5.365475 5.376868 23.900442 0.000000 0.000000 0.000000 23.078938 -0.862480 -12.428138 -14.600759 -1.303913 -6.033471 7.409109 4.061621 -6.344164 -3.519355 9.157742 6.311733 -58.451893 -39.731258 -8.746035 -97.987312 -3.725272 -12.366113 14.521465 3.770358 -9.057055 3.090466 -14.082293 8.028685 58.796295 15.943113 -47.192223 92.819450 18.695557 35.495590 -12.885636 -9.406489 -8.937677 -13.745780 13.000337 17.272474 63.677143 -2.700229 -25.802763 -28.880697 -5.823815 18.943066 -29.674852 -31.752064 -16.450518 56.124752 -7.457937 12.963195 -2.646494 0.103564 -2.265493 
1.880258 42.954220 -0.138257 -4.958816 4.796517 24.067387 0.000000 0.000000 0.000000 22.383514 -0.442464 -12.565102 -14.391595 -1.133220 -6.269445 7.595196 4.003289 -6.447184 -3.519355 9.157742 6.311733 -59.705868 -38.838207 -7.878284 -97.241226 -3.343813 -11.865103 13.825834 3.354874 -9.025200 3.090466 -14.082293 8.028685 60.356857 16.119781 -47.494179 92.454041 18.782875 36.334663 -12.711812 -9.078097 -8.942883 -14.293525 13.099777 17.208715 63.072330 -2.798579 -25.727480 -28.447332 -5.688174 18.719257 -29.547804 -31.575865 -16.886719 54.987041 -6.951966 13.238633 -2.069234 0.080657 -2.102581 
1.937747 43.123230 -0.169817 -5.190423 4.298773 23.321180 0.000000 0.000000 0.000000 22.236328 -0.009039 -12.103304 -13.988425 -0.931562 -6.431186 7.634645 3.749466 -6.430417 -3.519355 9.157742 6.311733 -60.584858 -37.356964 -8.150100 -96.430977 -3.133518 -11.035642 13.730552 3.253804 -9.029713 3.090466 -14.082293 8.028685 61.518921 16.923351 -47.070011 93.427956 18.889585 35.627834 -12.606574 -9.487852 -8.925611 -13.855721 13.463660 17.371092 62.374763 -2.896621 -25.460836 -28.359360 -5.641397 18.635992 -29.117727 -30.735674 -16.895521 53.854195 -6.696464 13.446273 -1.885701 0.086787 -2.025406 
2.009003 43.202568 -0.204639 -5.257277 4.045467 22.069715 0.000000 0.000000 0.000000 21.933659 0.135881 -11.781199 -12.946259 -0.409709 -6.300613 6.304601 3.376194 -6.033663 -3.519355 9.157742 6.311733 -60.897739 -34.796833 -9.672464 -96.139458 -3.356907 -11.527658 12.801360 3.792032 -8.922146 3.090466 -14.082293 8.028685 62.670006 18.683807 -46.259895 95.240356 19.034203 33.450584 -11.979478 -8.261726 -8.961836 -13.574546 13.516105 17.637302 62.129871 -2.996505 -24.740801 -28.194845 -5.552351 18.452486 -29.218241 -30.028219 -16.532019 52.996758 -6.591360 13.492053 -2.323734 0.090739 -2.131702 
2.077136 43.236019 -0.215192 -5.394595 4.083457 20.835705 0.000000 0.000000 0.000000 22.002705 -0.461774 -12.012836 -13.360980 0.735930 -6.336546 6.922647 2.147515 -5.219211 -3.519355 9.157742 6.311733 -59.760536 -32.331024 -11.619067 -96.555389 -3.817044 -12.482112 13.771381 3.544741 -9.008327 3.090466 -14.082293 8.028685 63.572964 21.059658 -43.590557 95.706276 18.255182 34.555031 -12.653564 -8.262485 -8.984367 -13.017457 13.349193 17.952803 61.848236 -3.159719 -23.910538 -28.523788 -5.651130 18.574104 -29.049627 -29.779322 -16.548920 52.193558 -6.375685 13.748936 -3.531618 0.157783 -2.460283 
2.083948 43.240421 -0.228722 -5.373990 3.928025 19.689579 0.000000 0.000000 0.000000 21.799805 -0.915805 -12.114429 -12.980886 1.267148 -5.887870 6.512409 1.990862 -4.535525 -3.519355 9.157742 6.311733 -58.463982 -29.934902 -12.883251 -96.637138 -4.138965 -13.606695 14.867821 2.623716 -9.155172 3.090466 -14.082293 8.028685 64.381546 23.976248 -40.970436 94.880386 17.252558 37.399864 -12.951446 -9.287092 -8.941667 -12.818459 13.449092 18.340033 61.762115 -3.306749 -23.104589 -28.748137 -5.702019 18.587797 -29.127171 -29.407274 -16.538340 51.522049 -6.122598 14.017346 -4.496121 0.179662 -2.743860 
2.042785 43.135998 -0.182497 -5.305657 3.957635 18.441561 0.000000 0.000000 0.000000 21.840336 -2.012494 -11.714757 -13.665593 1.943574 -5.627923 7.294214 1.884275 -3.910223 -3.519355 9.157742 6.311733 -56.186146 -28.188078 -13.714278 -97.225838 -4.606786 -15.096135 15.823247 2.628881 -9.238697 3.090466 -14.082293 8.028685 64.845276 26.252697 -39.537861 93.528374 16.574036 38.552116 -12.298745 -9.634310 -8.914433 -12.624258 13.704932 19.006517 62.123993 -3.501761 -22.746962 -29.052896 -5.777313 18.664867 -29.947296 -29.055882 -15.920992 51.822849 -6.268332 14.532490 -5.194486 0.215906 -3.009881 
1.977396 42.998741 -0.070550 -5.494858 4.413301 17.320520 0.000000 0.000000 0.000000 22.284937 -3.687634 -11.197397 -14.100964 2.243793 -5.514246 7.626273 2.138362 -3.679020 -3.519355 9.157742 6.311733 -52.433605 -26.889637 -13.515158 -97.881767 -4.718680 -16.020164 16.934610 2.338003 -9.350756 3.090466 -14.082293 8.028685 65.405304 27.838326 -38.247837 91.132774 15.792440 40.867546 -13.011671 -10.014264 -8.910491 -11.874152 13.816037 19.870892 62.419270 -3.825298 -22.639427 -29.586481 -5.957542 18.950577 -30.669769 -29.143881 -15.370790 52.712448 -6.610412 15.335768 -5.516050 0.256255 -3.282178 
1.799209 42.774235 0.043527 -5.437034 4.540115 16.902897 0.000000 0.000000 0.000000 22.224264 -4.901749 -11.003636 -14.034189 2.091558 -5.222372 7.528200 2.587436 -3.583657 -3.519355 9.157742 6.311733 -49.635353 -26.174503 -14.130555 -98.494827 -4.985940 -16.614157 16.556349 2.368458 -9.314357 3.090466 -14.082293 8.028685 65.570793 29.110857 -37.285984 88.553131 15.033293 42.679649 -13.428357 -10.384358 -8.892437 -11.901365 14.259540 20.352922 63.217224 -3.814652 -22.860027 -30.261856 -6.191273 19.278500 -31.411610 -29.377737 -15.403728 53.983643 -6.601279 15.652258 -6.393387 0.303872 -3.535506 
1.565428 42.581425 0.229520 -5.417077 4.491651 17.338720 0.000000 0.000000 0.000000 22.421135 -5.446305 -10.924336 -14.586393 1.673208 -5.242313 7.781912 3.212562 -3.922928 -3.519355 9.157742 6.311733 -47.636158 -26.277431 -14.978623 -99.313728 -5.458929 -17.637608 16.327188 2.388351 -9.298509 3.090466 -14.082293 8.028685 65.609650 28.727509 -37.938030 87.580910 15.189892 41.527725 -13.534594 -9.452528 -8.941763 -12.137511 14.840174 20.337730 63.949108 -3.579396 -23.036741 -30.823301 -6.391470 19.568981 -31.551970 -29.774099 -15.976460 55.426907 -6.444332 15.418522 -7.654372 0.405145 -3.865288 
1.295025 42.457367 0.463539 -5.180564 4.289114 18.098183 0.000000 0.000000 0.000000 22.328691 -5.829922 -10.446100 -14.980263 1.591056 -5.709903 8.065260 3.740070 -4.458866 -3.519355 9.157742 6.311733 -46.416466 -27.369339 -15.168522 -99.599060 -5.657750 -17.924280 16.425856 2.233616 -9.312373 3.090466 -14.082293 8.028685 65.831604 27.053244 -39.067230 86.830803 15.435064 42.110256 -14.573202 -9.184530 -8.984319 -12.548168 15.632493 20.307850 64.438408 -3.354605 -23.789328 -31.003679 -6.472535 19.768038 -31.539936 -30.336367 -17.034700 56.859688 -6.111343 14.219168 -8.341449 0.410998 -3.901292 
1.062518 42.299240 0.798906 -5.102747 4.367455 19.249449 0.000000 0.000000 0.000000 22.317942 -6.038527 -10.383483 -14.950341 1.163715 -6.137123 8.211618 4.619034 -5.207240 -3.519355 9.157742 6.311733 -45.866146 -28.533419 -15.468167 -99.782204 -5.784924 -17.546185 16.409952 2.280807 -9.313310 3.090466 -14.082293 8.028685 66.158875 24.945330 -40.570175 86.748764 15.976381 42.784332 -15.170429 -9.321275 -8.989819 -12.761084 16.027719 19.883268 64.872635 -2.957377 -24.381529 -31.305984 -6.629308 20.006788 -30.847088 -31.459742 -18.576212 58.580578 -5.788707 13.628612 -10.563249 0.535104 -4.371006 
0.838247 42.157959 1.268126 -4.829090 4.456843 19.780483 0.000000 0.000000 0.000000 21.920301 -6.600105 -9.953277 -14.775331 0.940134 -6.583743 8.260167 5.449122 -5.872302 -3.519355 9.157742 6.311733 -45.380993 -29.240053 -15.928237 -100.821106 -6.318439 -18.780376 16.528276 2.433785 -9.315887 3.090466 -14.082293 8.028685 66.824478 22.472719 -41.784973 86.723503 16.442234 42.883282 -15.779957 -9.291783 -9.001715 -12.682490 16.348669 19.593338 65.105324 -2.714209 -24.789680 -31.776175 -6.790444 20.231167 -30.514912 -32.630383 -20.313276 61.026394 -5.631313 10.398348 -13.853449 0.719813 -4.647645 
